<svg xmlns="http://www.w3.org/2000/svg" fill="#ebebeb" viewBox="0 0 325.45 341.32"><g id="Layer_2" data-name="Layer 2"><g id="Layer_1-2" data-name="Layer 1"><path d="M322.7,226.31a14.3,14.3,0,0,1-.25-2.06c-2.12-46.68,3.64-104.13-16.42-146.46-8.29-15.73-.45-31.18-17.91-39.82a15.31,15.31,0,0,1-2-1.13C251.45,12.76,230-3.92,180.64.8,143.17,2.56,74,5.12,37.33,11.34-1,18.1,3.21,38.47,4.08,62.7a12.47,12.47,0,0,0,.13,1.5c6.71,45.85-18.73,183,9.22,213,21.13,23.71,46.07,94.88,77.28,49.08.27-.38.55-.76.85-1.12,5.89-7,13.84-16.25,22.24-18.66,17.9-4.18,48.3,11,70.17,14.59C263.75,336.94,341.14,320.69,322.7,226.31ZM315,273.9c-13.13,54-81,46.61-128.85,39.67-.36-.05-.72-.12-1.07-.19-37.59-8.18-75.06-32-99.49,7.23-31.63,45.67-27-57.47-26.19-77.92,1.33-45.55,1.86-112.85,1.71-152.34,0-.39,0-.76,0-1.14,0-.09,0-.18,0-.26a13.79,13.79,0,0,1,12.44-12.2c69.56-6.92,141.24-.39,208.57-9a13.74,13.74,0,0,1,11.69,4.11c20.89,21.93,20.73,91.59,20.79,119.59a10.81,10.81,0,0,1-.07,1.27c-2.48,26,5.26,52.42.66,80C315.2,273.11,315.12,273.51,315,273.9Zm-69.44-18.74Q243,249.37,243,233.91v-97.2l-15.61-12.07-5.15,3.7v50.85H234.8l-12.56,16.42v43.13l7.73-6.92,3.38,3.7-36.86,32.35a126.28,126.28,0,0,0-11.1-11.59,155.31,155.31,0,0,0-12.72-10.46v-2.73c.43-.32,1-.73,1.69-1.21a26.74,26.74,0,0,0,2.5-2c2-2,3.06-6.49,3.06-13.36V195.29H151.27v43.45q0,38.47-32.51,38.47-1.94,0-12.07-.49a26.75,26.75,0,0,0-6.12-.64q-10,0-11.59,9.82H84.32V283q0-11.91,4.74-17.3t16.5-6.68q11.1-1.29,16.09-6.84t5-16.66q0-13-6.92-22.53-6.75-9.66-15.45-9.65-6.43,0-11.91,6.75l-3.86-2.73a34.45,34.45,0,0,1,4.43-7.49,24.75,24.75,0,0,1,5.79-5.31,31.29,31.29,0,0,1,7.57-3.54,52.1,52.1,0,0,1,10-2q.16-17.22,4.19-27.84a49.38,49.38,0,0,1,13.36-18.83q3.54-3.06,7.48-6a91.18,91.18,0,0,1,8.61-5.71q2.58-1.6,10.7-6.2l21.81-12.31,3.06-1.77q9.33,5.31,12.55,10.62,2.9,4.83,3.7,16.58l38.63-27.84,23.34,18.67q1.28-1.29,3.62-3.54t5.87-5.48l4.18,3.06q-7.23,8.06-9.17,14-1.77,6.28-1.77,21.57v73.71q0,9.83,1,12.23,1,2.58,5.79,5.15l6.6-5.31,3.86,4.19-25.27,20Q248.16,261,245.58,255.16Zm-102.84-1.45q3.7-5.62,3.7-23V163.1q0-17.53,3.54-25.59-8.21,6.6-10.14,13-1.93,6.6-1.93,27.68v44.1q0,19-3.06,25.75-3.22,7.08-13,10.94l4.82.24,1.45.08Q139,259.34,142.74,253.71Zm35.57-119.58c-1.08-2.79-4-5.74-8.7-8.85q-12.06,7.25-15.28,13.84-3.06,6.28-3.06,23.82v29.13l9.65-12.88h19V152.48Q179.92,138,178.31,134.13Zm39.27-2.25-15.13,10.94v36.37h15.13Zm-15.13,89.48q0,14.32,1.61,19,1.77,4.67,7.08,4.67a9.09,9.09,0,0,0,6.44-3.06V195.29H202.45Z"/></g></g></svg>